<svg xmlns="http://www.w3.org/2000/svg" width="50" height="50" viewBox="0 0 50 50" fill="none">
  <path d="M35.6 37C32.8222 37 30.0778 36.3947 27.3667 35.184C24.6556 33.9733 22.1889 32.2564 19.9667 30.0333C17.7444 27.8102 16.028 25.3436 14.8173 22.6333C13.6067 19.9231 13.0009 17.1787 13 14.4C13 14 13.1333 13.6667 13.4 13.4C13.6667 13.1333 14 13 14.4 13H19.8C20.1111 13 20.3889 13.1058 20.6333 13.3173C20.8778 13.5289 21.0222 13.7787 21.0667 14.0667L21.9333 18.7333C21.9778 19.0889 21.9667 19.3889 21.9 19.6333C21.8333 19.8778 21.7111 20.0889 21.5333 20.2667L18.3 23.5333C18.7444 24.3556 19.272 25.1498 19.8827 25.916C20.4933 26.6822 21.1658 27.4213 21.9 28.1333C22.5889 28.8222 23.3111 29.4613 24.0667 30.0507C24.8222 30.64 25.6222 31.1787 26.4667 31.6667L29.6 28.5333C29.8 28.3333 30.0613 28.1836 30.384 28.084C30.7067 27.9844 31.0231 27.9564 31.3333 28L35.9333 28.9333C36.2444 29.0222 36.5 29.1836 36.7 29.4173C36.9 29.6511 37 29.912 37 30.2V35.6C37 36 36.8667 36.3333 36.6 36.6C36.3333 36.8667 36 37 35.6 37Z" fill="#040404"/>
</svg>
