<svg xmlns="http://www.w3.org/2000/svg" width="18" height="18" fill="none" viewBox="0 0 18 18"><path stroke="#4a29bf" stroke-linecap="round" stroke-linejoin="round" stroke-width="1.5" d="M2.25 16.5h13.5M4.2 6.285H3a.75.75 0 0 0-.75.75V13.5c0 .413.337.75.75.75h1.2c.412 0 .75-.337.75-.75V7.035a.75.75 0 0 0-.75-.75M9.6 3.893H8.4a.75.75 0 0 0-.75.75V13.5c0 .413.338.75.75.75h1.2c.412 0 .75-.337.75-.75V4.643a.75.75 0 0 0-.75-.75M15 1.5h-1.2a.75.75 0 0 0-.75.75V13.5c0 .412.337.75.75.75H15c.412 0 .75-.338.75-.75V2.25A.75.75 0 0 0 15 1.5"/></svg>