<svg xmlns="http://www.w3.org/2000/svg" width="18" height="18" fill="none" viewBox="0 0 18 18"><path stroke="#4a29bf" stroke-linecap="round" stroke-linejoin="round" stroke-miterlimit="10" stroke-width="1.5" d="M12.75 13.822h-3l-3.338 2.22a.748.748 0 0 1-1.162-.622v-1.598c-2.25 0-3.75-1.5-3.75-3.75v-4.5c0-2.25 1.5-3.75 3.75-3.75h7.5c2.25 0 3.75 1.5 3.75 3.75v4.5c0 2.25-1.5 3.75-3.75 3.75"/><path stroke="#4a29bf" stroke-linecap="round" stroke-linejoin="round" stroke-width="1.5" d="M9 8.52v-.157c0-.51.315-.78.63-.998.308-.21.615-.48.615-.975 0-.69-.555-1.245-1.245-1.245S7.755 5.7 7.755 6.39M8.997 10.313h.006"/></svg>