<svg xmlns="http://www.w3.org/2000/svg" width="50" height="50" viewBox="0 0 50 50" fill="none">
  <path d="M25.0001 27.3999L22.3205 33.2187C21.5429 34.9059 21.1553 35.7495 21.5657 36.3591L21.6017 36.4083C22.0409 36.9999 23.0273 36.9999 25.0001 36.9999H25.0001C26.9729 36.9999 27.9593 36.9999 28.3985 36.4071L28.4333 36.3591C28.8445 35.75 28.4568 34.9074 27.6817 33.2231L27.6797 33.2187L25.0001 27.3999Z" stroke="#FF2020" stroke-width="2" stroke-linecap="round" stroke-linejoin="round"/>
  <path d="M25.0001 27.4001C26.3256 27.4001 27.4001 26.3256 27.4001 25.0001C27.4001 23.6746 26.3256 22.6001 25.0001 22.6001C23.6746 22.6001 22.6001 23.6746 22.6001 25.0001C22.6001 26.3256 23.6746 27.4001 25.0001 27.4001Z" stroke="#FF2020" stroke-width="2" stroke-linecap="round"/>
  <path d="M15.4 32.2012C13.8388 30.1254 12.9963 27.5974 13 25C13 18.3724 18.3724 13 25 13C31.6276 13 37 18.3724 37 25C37 27.7024 36.1072 30.196 34.6 32.2012" stroke="#FF2020" stroke-width="2" stroke-linecap="round"/>
  <path d="M19.6334 29.8C18.7068 28.764 18.0998 27.482 17.8857 26.1087C17.6716 24.7353 17.8597 23.3294 18.4271 22.0605C18.9945 20.7917 19.917 19.7142 21.0834 18.9582C22.2497 18.2021 23.6099 17.7998 24.9998 17.7998C26.3897 17.7998 27.7499 18.2021 28.9163 18.9582C30.0826 19.7142 31.0051 20.7917 31.5725 22.0605C32.1399 23.3294 32.328 24.7353 32.1139 26.1087C31.8998 27.482 31.2929 28.764 30.3662 29.8" stroke="#FF2020" stroke-width="2" stroke-linecap="round"/>
</svg>
