<svg width="405" height="122" viewBox="0 0 405 122" fill="none" xmlns="http://www.w3.org/2000/svg">
<path d="M4.86445 0.190185C12.7929 -0.330304 21.3965 0.413802 29.4229 0.129697C35.0397 0.132749 40.8364 0.100572 46.4308 0.117496C88.0529 0.243456 98.7629 64.0824 65.7086 86.985C54.8301 94.5224 45.2252 92.6424 33.1087 92.7978C32.3805 93.2517 31.1561 94.104 30.78 94.9111C27.7862 101.758 32.2358 113.918 28.1178 120.014C25.9429 123.234 13.4746 121.463 9.99705 121.891C9.44578 121.959 5.08783 121.883 4.476 121.741C3.49757 121.51 2.6013 120.969 1.8965 120.185C-0.252826 117.777 0.0718106 115.258 0.082615 112.064L0.0569885 82.4569C0.0547271 77.4637 -0.0731689 71.9228 0.193172 66.9695C0.495445 61.346 8.20955 59.2096 11.03 54.9123C15.6523 47.8701 23.8131 42.5914 31.6524 41.8154C34.4864 41.5349 37.8704 41.6845 40.7741 41.7253C40.806 43.679 40.2728 48.8462 42.2814 49.1137C44.0269 48.4467 56.9385 38.6933 57.9172 36.6702C57.1769 35.0982 43.9264 24.6415 42.0708 23.5961L41.4987 23.8247C40.5432 25.2477 40.8022 29.5359 40.7705 31.5779C26.1904 31.1701 18.2082 33.9151 6.90724 45.1492C5.39236 46.6549 2.44602 50.3069 0.79571 50.9365L0.547964 50.6565C-0.468154 46.3567 0.280113 29.6314 0.0775925 24.2256C0.167546 18.5596 -0.0299487 12.8556 0.0906588 7.19542C0.171818 3.38636 1.79248 1.33021 4.86445 0.190185ZM34.0341 63.6163C34.0542 61.6123 34.366 57.2145 33.4494 55.7993C31.2159 55.4319 21.8387 63.9762 19.3215 65.5426C18.6057 65.9882 17.3677 67.432 16.8815 68.2541C16.9275 69.8156 23.1455 74.1829 24.5529 75.4275C26.6987 77.0444 31.4174 81.7901 33.1117 81.5099C34.4723 80.0544 34.0462 75.7621 34.0045 73.7045C36.7051 73.7498 39.6235 73.881 42.295 73.6482C50.4124 72.9416 57.8171 68.3515 63.696 62.327C65.2576 60.7264 70.6324 53.9354 70.2875 51.7999C68.8756 51.1285 62.9093 51.4384 60.9949 51.4744C59.426 52.8864 58.2624 54.9084 56.6955 56.4177C51.828 61.1057 46.031 63.6654 39.5316 63.5703C37.7461 63.5442 35.8136 63.5669 34.0341 63.6163Z" fill="#1C1C1E"/>
<path d="M107.825 34.5596C111.698 34.4556 115.7 34.5593 119.587 34.5124C125.023 34.4303 130.653 34.1662 134.765 38.8672C139.905 44.7441 139.709 55.3398 134.302 60.9494C130.676 64.7116 126.714 65.3336 121.992 65.2698L116.417 65.2679L116.363 81.8722C113.492 81.9366 110.62 81.9407 107.748 81.885C107.662 79.7619 107.64 77.1892 107.716 75.0584C108.19 61.8464 107.01 47.6656 107.825 34.5596ZM116.422 56.7131C120.684 56.7997 124.539 57.5105 127.994 54.6983C128.752 53.6063 129.495 52.4232 129.638 51.0385C130.642 41.3279 121.542 43.08 116.399 43.1088C116.376 47.6434 116.383 52.1783 116.422 56.7131Z" fill="#1C1C1E"/>
<path d="M151.986 46.8022C155.958 46.59 159.056 46.7276 162.604 49.0945C170.343 54.2408 171.636 66.9814 167.155 75.0537C164.812 79.2754 161.197 81.2466 156.981 82.3092C153.037 82.8716 149.328 82.3223 145.893 80.055C136.868 74.0991 136.488 56.5467 144.965 49.8702C147.244 48.076 149.314 47.4276 151.986 46.8022ZM155.725 74.2136C165.036 71.1786 162.93 53.1935 153.025 54.7868C143.214 57.874 146.046 76.3638 155.725 74.2136Z" fill="#1C1C1E"/>
<path d="M295.26 33.4772C302.009 32.7143 308.662 34.4128 312.562 41.064C312.019 41.7085 308.062 47.1256 307.479 46.5275C304.469 43.4373 297.011 39.4645 293.438 43.6098C289.106 49.3613 294.91 51.8691 299.029 53.0136C306.745 55.1574 313.979 58.2043 313.886 68.2362C313.881 71.944 312.527 75.4939 310.13 78.0889C306.986 81.4688 302.494 82.5488 298.24 82.5186L298.102 82.5222C294.257 82.5819 282.39 79.364 282.39 74.0509C282.985 72.1751 286.378 69.3113 287.91 68.2251C288.858 69.3066 289.75 70.3529 290.807 71.3073C300.283 79.859 315.075 66.844 297.77 62.1557C292.642 60.7141 284.46 57.5179 283.435 50.7968C281.965 41.1359 287.463 35.297 295.26 33.4772Z" fill="#094BC9"/>
<path d="M202.706 33.5121L210.194 33.5065C210.458 36.0238 210.415 57.747 210.154 60.2085C213.367 55.9058 217.086 51.3649 220.448 47.1438C223.85 47.141 227.255 47.1957 230.657 47.3081C227.865 51.3577 221.408 58.0411 217.97 62.2946C220.724 66.0864 223.712 70.9598 226.438 74.9303C227.755 76.79 229.828 79.7593 230.757 81.7882C227.941 82.0096 224.275 81.9311 221.44 81.8931C220.114 80.4662 213.963 70.6008 212.548 68.3013C211.812 69.1345 210.933 70.029 210.166 70.8466C210.267 74.1673 210.36 78.5571 210.224 81.8218C207.752 82.0052 204.588 81.9325 202.113 81.8376C201.756 66.3495 202.214 50.5753 202.116 35.0669C202.111 34.1937 202.249 34.1144 202.706 33.5121Z" fill="#1C1C1E"/>
<path d="M242.059 46.7952C242.552 46.7622 243.047 46.7448 243.542 46.7423C255.148 46.6255 258.238 55.9904 258.228 67.0522C252.123 67.5202 243.461 67.1226 237.016 67.263C238.911 76.2084 246.655 77.1146 251.68 70.3371L254.178 72.4338C255.243 73.3111 257.771 74.9527 256.432 76.7755C251.633 83.3105 241.76 84.238 235.532 79.8252C227.958 74.4591 227.129 61.1292 231.926 53.3605C234.464 49.2656 237.763 47.6601 242.059 46.7952ZM237.145 60.6271L243.479 60.6598C245.703 60.6778 247.929 60.6573 250.153 60.5979C248.911 56.3746 247.818 54.6076 243.564 54.2794C239.896 55.1844 238.21 56.5081 237.145 60.6271Z" fill="#1C1C1E"/>
<path d="M336.276 47.2609C338.643 47.0722 342.076 47.1643 344.44 47.3408C343.885 49.9804 342.211 54.4437 341.279 57.1274C339.47 62.2668 337.714 67.4282 336.008 72.6111C334.221 77.9056 331.608 87.111 328.562 91.2802C326.268 94.1701 323.61 94.6389 320.454 94.8615C314.972 95.2482 316.291 91.6031 316.449 86.7284C322.324 86.873 322.517 87.1693 325.005 81.1692C321.03 70.5974 317.67 59.471 313.783 48.8279C313.615 48.3665 313.605 47.821 313.667 47.3322C316.15 47.0952 319.401 47.1984 321.889 47.2595C324.389 54.6523 326.542 62.5573 329.228 69.8023C330.839 63.6796 334.244 53.2984 336.276 47.2609Z" fill="#094BC9"/>
<path d="M361.275 46.7894C361.916 46.7672 362.556 46.7539 363.197 46.7492C374.421 46.6962 373.8 57.6064 373.798 66.475C373.826 71.6494 373.81 76.824 373.753 81.9979C371.137 82.0789 368.333 81.9723 365.702 81.9213C365.476 75.0251 366.056 67.7859 365.654 60.9075C365.315 55.0903 361.423 53.8817 357.051 56.1554C356.043 57.1772 354.938 58.7387 354.76 60.2433C353.953 67.0288 354.3 75.0589 354.292 81.9013C351.596 82.0636 348.993 81.9809 346.297 81.9241C346.214 80.2672 346.179 78.3466 346.214 76.6922C346.43 66.9331 345.953 56.94 346.299 47.2108C348.882 47.1318 351.465 47.1548 354.048 47.2796C354.079 48.4962 354.051 49.8341 354.048 51.0621C356.305 48.5004 358.139 47.486 361.275 46.7894Z" fill="#094BC9"/>
<path d="M185.33 46.7947C191.849 46.6252 196.296 47.9466 199.884 54.412C197.882 56.0825 195.927 58.2149 193.771 59.5481C192.191 57.5169 191.939 56.4728 189.492 55.3361C187.979 54.63 186.277 54.6106 184.752 55.2818C175.927 59.2515 179.736 78.4016 190.233 73.654C191.362 73.1443 192.598 70.7483 193.899 70.1221C194.749 70.2034 194.96 70.4683 195.648 71.0296L195.887 71.2266C197.259 72.421 198.638 73.6046 200.025 74.7765C196.96 78.8425 194.932 81.2419 189.937 82.2204C174.361 85.272 166.918 66.108 175.034 53.0919C177.4 49.2978 181.229 47.4694 185.33 46.7947Z" fill="#1C1C1E"/>
<path d="M390.756 46.8167C395.568 46.4829 400.701 47.813 403.646 52.3886C403.899 52.7168 404.666 54.0794 404.457 54.4772C403.56 56.1827 400.362 58.281 398.912 59.2682L397.841 57.998C395.274 54.9295 391.095 53.3328 387.979 56.6666C382.293 62.7568 385.844 78.7371 395.447 73.3938C396.955 72.5548 397.955 71.1862 399.115 69.8222C399.761 70.27 400.59 70.9933 401.221 71.5083C401.955 72.2538 404 73.8016 405 74.6967C401.07 83.1652 389.947 84.7843 383.281 79.5453C374.619 72.7254 374.916 55.4594 384.044 49.2496C386.344 47.6856 388.128 47.2251 390.756 46.8167Z" fill="#094BC9"/>
<path d="M269.457 37.3547C270.704 37.4218 270.405 37.2176 271.214 37.8666C272.03 39.6406 271.656 44.7661 271.671 47.1766C274.038 47.1444 276.405 47.1422 278.769 47.1691C278.882 49.7929 278.832 52.4319 278.815 55.0596C276.463 55.0288 274.04 55.0927 271.684 55.1248C271.54 60.646 271.523 66.4119 271.736 71.9189C271.87 75.3238 276.789 74.0098 278.706 73.636C278.943 76.1317 278.93 78.8809 278.847 81.3871L276.716 81.8826C265.133 84.0492 262.992 78.2597 263.585 66.9851C263.776 63.3439 263.6 58.7949 263.588 55.0749L258.578 55.0707C258.527 52.4492 258.537 49.7676 258.522 47.1402L263.651 47.199L263.628 38.9081L269.457 37.3547Z" fill="#1C1C1E"/>
</svg>
