<svg xmlns="http://www.w3.org/2000/svg" width="36" height="38" fill="none" viewBox="0 0 48 50"><path fill="#392691" d="m30.27 10.246.027-.022.048.157c.477.28.565-.035.838.004.867.124 1.726.159 2.595.241.878.083 1.767.316 2.65.107.309-.074.649-.444.938-.616.262-.157.509-.289.78-.429.096.044.114.053.217.076.265-.256.056-.822.192-1.221 1.169 3.34.832 7.475-.712 10.651a12.48 12.48 0 0 1-7.193 6.326c-3.706 1.268-5.462.476-8.98.756a3.65 3.65 0 0 0-1.075.967c-.027 1.11-.012 2.247-.008 3.36.006 1.483.261 3.59-1.897 3.55-2.071-.038-4.218-.003-6.296-.005-.217 0-.534-.027-.745-.068-1.118-.843-.843-2.013-.842-3.3l.004-3.625-.003-5.146c0-.762-.146-3.283.309-3.898.49-.662 1.967-1.288 2.651-1.821.537-.407.925-1.11 1.4-1.592 1.608-1.547 3.934-2.64 6.157-2.87.884-.092 2.05-.075 2.946-.084-.009.54-.157 1.7.219 2.098.07.073.135.136.244.13.513-.028 5.012-3.022 5.381-3.5.043-.054.08-.112.119-.169zm-8.07 7.769c.013-.74.295-3.111-1.085-2.088-.755.56-4.889 2.834-4.911 3.547.232.394 2.305 1.686 2.831 2.068 1.014.671 1.627 1.262 2.755 1.854l.354-.433c.045-.684.072-1.237.039-1.93 1.018.01 2.415 0 3.42-.106 2.882-.305 8.177-3.515 8.94-6.477-.961-.089-2.365-.042-3.35-.03l-.033.027c-.438.36-.895 1.03-1.363 1.403-1.607 1.278-3.454 1.965-5.503 2.084-.672.039-1.464.022-2.093.08"/><path fill="#21245d" d="M11.798.056c.968-.082 2.345-.045 3.34-.045l5.72.002L25.57.007c1.022-.001 2.17-.043 3.172.092 4.496.604 8.543 4.142 9.812 8.444-.136.4.073.965-.192 1.22-.103-.022-.121-.03-.217-.075-.271.14-.518.272-.78.429-.29.172-.63.542-.938.616-.883.21-1.772-.024-2.65-.107-.87-.082-1.728-.117-2.595-.241-.273-.039-.361.275-.838-.004l-.048-.157-.027.022c-.177-.14-.303-.317-.513-.464-1.317-.916-2.649-1.8-3.927-2.774a9 9 0 0 0-1.11-.748c-.182.184-.267.316-.416.53-.04.493-.046 1.313-.002 1.793-4.313-.43-8.568 1.51-11.689 4.343-.273.248-1.369 1.422-1.638 1.43-.137-.153-.165-.62-.165-.835q.004-3.91-.002-7.823l-.012-2.783C10.79 1.533 10.58.959 11.798.055"/><path fill="#0d2341" d="M.032 41.35c1.054.008 3.571-.206 4.151.56 1.501 1.986.358 3.698-1.944 3.713l-1.043.022c.033.778.02 1.651.036 2.444q-.602.009-1.205.024l-.014-4.105c-.003-.79-.037-1.887.02-2.657m1.179 3.173c.827-.053 1.591.164 2.115-.33.356-.595.472-1.25-.246-1.624-.603-.314-1.249-.155-1.883-.211.028.616.055 1.547.014 2.165"/><path fill="#0d2341" d="M6.996 43.167c.622-.043 1.099-.053 1.68.241 1.223.623 1.617 2.324.965 3.484-.355.631-.902.985-1.595 1.184-1.442.129-2.639-.213-2.948-1.804-.285-1.465.297-2.841 1.898-3.105m.807 3.912c1.527-.614 1.164-3.091-.59-2.988-.442.203-.707.385-.867.869-.386 1.165.111 2.282 1.457 2.12"/><path fill="#3f22bb" d="M30.215 41.206c1.235-.124 1.918.267 2.911.928-.31.31-.593.588-.92.88-.778-.684-.885-.799-1.89-.76-.187.098-.432.231-.536.408-.634 1.043.71 1.254 1.392 1.464.803.248 1.972.713 2.045 1.687.12 1.592-.89 2.175-2.25 2.326-1.265-.003-1.937-.257-2.934-1.064.294-.272.627-.596.973-.792.732.659 1.264.864 2.282.725.3-.041.837-.604.676-.94-.215-.45-.76-.635-1.205-.786-1.354-.426-3.138-1.198-2.259-2.946.323-.641 1.055-.928 1.715-1.13"/><path fill="#0d2341" d="M21.583 43.161c2.057-.116 2.425 1.067 2.616 2.787-1.112.051-2.413.041-3.526.017l.245.668c1.043.86 1.322.67 2.353-.046l.734.693c-1.567 1.453-4.062 1.136-4.415-1.2-.218-1.449.418-2.711 1.992-2.919m.537 2.045c.304.005.644.003.945.017-.285-.749-.484-1.25-1.411-1.185-.632.338-.734.444-.95 1.147l-.02.064c.484-.062.95-.047 1.436-.043"/><path fill="#0d2341" d="m15.238 41.199 1.158-.011c.067 1.148.019 2.884-.005 4.063.275-.442 1.416-1.83 1.929-2.064.171-.079 1.149-.04 1.42-.035-.598.513-1.569 1.602-2.117 2.2.43.473.829 1.039 1.211 1.555.343.457.564.761.975 1.166-.43-.032-.993.013-1.434.037-.441-.444-1.151-1.707-1.554-1.924-.527.016-.404 1.495-.404 1.904q-.575.002-1.148.034a231 231 0 0 1-.05-5.28c-.001-.545-.016-1.102.02-1.645"/><path fill="#3f22bb" d="m38.073 43.122.05.03c.04.16-1.697 4.632-1.934 5.212-.261.64-.86 1.734-1.694 1.59-.178-.03-.602.025-.8.046-.001-.458.008-.764.052-1.219.957.334 1.034.06 1.405-.772l-.553-1.32c-.416-.843-.981-2.6-1.357-3.556.365-.02.857.008 1.233.019.389 1.063.867 2.7 1.258 3.633.101-.527 1.033-3.128 1.284-3.649q.528.003 1.056-.014M38.55 43.126c.358.009.779-.08 1.024.116.11.168.066.422.053.631.825-.663 1.75-1.158 2.813-.291.453.368.495 1.364.51 1.93.024.847.001 1.75-.017 2.618-.417-.013-.78-.001-1.198.014l-.02-2.397c.005-.252.04-1.335-.226-1.44-2.377-.947-1.738 2.488-1.766 3.79-.393-.003-.79.032-1.183.06-.057-1.099.03-2.276-.002-3.382a17 17 0 0 1 .012-1.65"/><path fill="#0d2341" d="M12.325 43.163c.595-.034 2.217.148 2.41.839-.064.333-.485.526-.802.74-.48-.402-.592-.504-1.196-.682-.928.259-1.047.71-1.311 1.546.197.96.424 1.224 1.304 1.562.522-.134.717-.176 1.148-.523l.104-.056c.318.119.904.432.556.855-.621.765-2.29.908-3.081.356-1.787-1.246-1.353-4.155.868-4.637"/><path fill="#3f22bb" d="M45.566 43.155q.193-.01.386-.008c.46.006 2.016.372 1.96.983-.145.173-.63.458-.85.597-.296-.284-.55-.535-.976-.613-.792-.145-1.238.64-1.324 1.318-.064.465.067.935.362 1.3.68.842 1.405.318 2.032-.2.414.292.518.303.844.69-.41.399-.84.703-1.405.854a2.4 2.4 0 0 1-1.843-.24c-1.914-1.132-1.534-4.123.814-4.681"/><path fill="#0d2341" d="M25.702 41.813c.288-.028.552-.045.57.317.017.325-.008.72-.012 1.049.387-.026.844-.026 1.237-.036-.01.388-.032.655-.079 1.041-.41.009-.752.026-1.159-.032l.004 2.86c.347-.01 1.145-.109 1.241.387.033.168.025.484-.03.65-1.093.08-1.56.262-2.268-.665-.126-.686-.07-2.479-.062-3.22-.345.032-.619.131-.87-.129-.088-.22-.04-.64-.029-.894l.937.023c-.017-.673-.25-1.1.52-1.35"/></svg>