<svg xmlns="http://www.w3.org/2000/svg" width="268" height="703" viewBox="0 0 268 703" fill="none">
  <g opacity="0.08">
    <path d="M189.838 144.722L190.015 144.185L192.099 145.93C201.215 145.521 199.623 140.367 203.769 138.453C216.912 132.385 229.142 125.169 241.95 118.506C254.888 111.773 269.311 107.033 279.689 96.2004C283.322 92.4023 284.718 84.2093 287.181 79.2176C289.411 74.6952 291.653 70.6431 294.161 66.2669C295.892 66.0209 296.229 65.9794 297.857 65.3652C299.242 59.4414 291.258 53.4567 289.559 46.6897C335.764 82.558 368.216 142.988 375.299 200.946C381.827 255.323 366.339 310.171 332.263 353.34C292.198 404.212 260.705 408.99 214.377 444.467C210.593 452.581 208.867 458.511 208.139 467.539C217.733 483.185 228.148 498.843 238.198 514.252C251.592 534.787 274.061 561.746 243.748 580.559C214.643 598.623 185.167 618.385 156.3 637.013C153.28 638.957 148.648 641.435 145.342 642.763C122.257 641.098 115.575 622.391 104.035 604.516L71.5285 554.152L25.2903 482.75C18.449 472.178 -6.20428 438.484 -5.41832 425.871C-4.57037 412.276 10.323 390.325 15.0354 376.785C18.8273 366.311 17.9026 353.068 20.1784 342.121C28.6031 306.206 51.0891 270.146 79.8723 246.999C91.3304 237.785 107.663 227.538 120.017 219.375C124.731 226.946 133.102 244.402 141.886 246.533C143.505 246.927 144.989 247.216 146.444 246.158C153.322 241.16 188.886 159.195 189.724 149.251C189.819 148.116 189.826 146.98 189.846 145.842C189.853 145.468 189.846 145.095 189.838 144.722ZM147.577 325.015C141.102 314.628 123.732 279.193 113.766 305.787C108.31 320.347 71.3397 389.015 77.4311 399.115C84.1867 402.502 124.569 401.815 135.306 402.401C155.397 402.618 169.209 405.31 190.19 403.414L191.211 394.219C185.707 384.313 181.109 376.4 174.426 367.072C188.642 358.06 207.95 345.385 220.948 334.89C258.229 304.783 302.905 212.675 286.898 164.715C272.762 172.116 253.698 185.367 240.131 194.378L239.911 195.049C237.062 203.976 236.746 217.383 233.59 226.754C222.753 258.924 203.296 285.051 175.906 305.101C166.925 311.675 155.785 318.558 147.577 325.015Z" fill="#392691"/>
    <path d="M-158.071 169.119C-145.364 159.3 -125.92 147.439 -112.101 138.503L-32.6951 87.176L32.6845 44.7729C46.8564 35.595 62.4141 24.7075 77.5361 17.58C145.37 -14.3927 233.326 -1.62172 289.559 46.6897C291.258 53.4567 299.242 59.4414 297.857 65.3652C296.229 65.9794 295.892 66.0209 294.161 66.2669C291.653 70.6431 289.411 74.6952 287.181 79.2176C284.718 84.2093 283.322 92.4023 279.689 96.2004C269.311 107.033 254.888 111.773 241.95 118.506C229.142 125.169 216.912 132.385 203.769 138.453C199.623 140.367 201.215 145.521 192.099 145.93L190.015 144.185L189.838 144.722C186.139 144.377 182.788 143.038 178.553 142.895C152.042 142.003 125.614 141.675 99.1438 139.642C92.0696 139.098 84.0555 138.71 77.0237 139.224C76.1458 143.412 76.1324 146.007 75.9942 150.306C79.8671 157.516 87.133 168.953 92.0762 175.225C28.3481 207.987 -13.3199 273.109 -31.1996 340.46C-32.7633 346.354 -37.4394 372.485 -41.0933 375.016C-44.3832 374.121 -48.946 367.901 -50.8789 364.905C-74.2624 328.689 -97.6781 292.495 -121.155 256.338L-146.315 217.802C-158.798 198.667 -166.863 192.58 -158.071 169.119Z" fill="#21245D"/>
    <path d="M49.3642 847.987C64.0583 838.63 97.0818 813.057 112.016 818.494C150.676 832.567 150.183 866.608 118.362 887.479L104.084 897.153C111.525 907.647 119.166 919.897 126.528 930.758C121 934.441 115.494 938.157 110.011 941.904L72.9561 885.055C65.8192 874.095 55.4962 859.186 49.3642 847.987ZM94.2123 881.448C105.218 873.275 117.775 869.433 120.601 857.863C120.21 846.417 115.938 836.275 102.617 837.531C91.4226 838.587 83.8917 846.601 74.5784 851.507C80.5055 859.813 89.2302 872.487 94.2123 881.448Z" fill="#0D2341"/>
    <path d="M162.345 810.682C170.596 804.492 177.113 800.07 187.817 798.955C210.396 796.604 231.144 816.686 232.497 838.634C233.235 850.586 228.816 860.411 220.99 869.389C202.124 884.133 182.449 890.125 163.865 870.816C146.756 853.039 142.483 828.713 162.345 810.682ZM208.668 857.743C224.349 835.514 197.074 804.377 173.64 821.557C169.331 828.338 167.289 833.246 169.409 841.404C174.514 861.045 191.446 872.085 208.668 857.743Z" fill="#0D2341"/>
    <path d="M467.048 574.991C483.083 562.176 496.071 561.472 515.792 561.738C514.266 568.805 512.834 575.224 510.915 582.193C493.968 579.698 491.468 579.067 477.866 588.634C476.149 591.668 473.941 595.719 474.077 599.11C474.651 619.278 495.185 610.147 506.555 606.933C519.913 603.158 540.322 599.116 550.08 611.98C566.033 633.01 557.245 650.168 539.725 664.475C522.156 675.795 510.541 678.299 489.447 676.051C491.089 669.636 492.811 662.141 495.841 656.317C511.92 658.889 521.153 656.958 534.038 645.884C537.822 642.633 540.227 629.995 534.974 626.77C527.942 622.452 518.721 624.78 511.192 626.683C488.579 632.926 456.874 638.225 453.385 606.064C452.107 594.277 459.691 583.72 467.048 574.991Z" fill="#3F22BB"/>
    <path d="M364.768 679.631C392.29 659.553 408.013 672.672 426.116 694.831C411.134 705.527 392.985 717.066 377.312 726.719L386.712 733.793C408.927 736.371 411.083 731.233 418.966 712.025L435.376 715.054C426.676 749.3 389.195 767.3 363.329 738.047C347.277 719.893 344.774 696.657 364.768 679.631ZM390.59 703.194C394.858 700.523 399.558 697.453 403.871 694.944C393.186 687.108 385.929 681.942 373.633 691.165C367.896 701.527 367.427 703.913 370.734 715.625C370.835 715.979 370.94 716.332 371.049 716.684C377.21 711.478 383.8 707.503 390.59 703.194Z" fill="#0D2341"/>
    <path d="M259.081 709.351L275.055 698.81C286.292 714.151 301.208 738.674 311.471 755.25C311.319 746.648 314.696 717.133 319.707 709.279C321.382 706.655 335.299 698.407 339.107 696.058C335.417 708.538 331.717 732.379 329.479 745.595C339.685 748.307 350.31 752.57 360.249 756.3C369.119 759.573 374.909 761.809 384.257 763.743C378.008 767.157 370.589 772.84 364.672 777.124C354.566 774.92 333.368 763.765 325.824 764.372C318.662 769.334 333.647 788.763 337.325 794.436C332.018 797.887 326.803 801.478 321.686 805.205C305.285 781.114 289.421 756.829 273.576 732.372C268.677 724.811 263.476 717.207 259.081 709.351Z" fill="#0D2341"/>
    <path d="M593.331 531.035L594.298 530.986C596.299 532.867 612.324 610.534 614.24 620.709C616.356 631.943 617.86 652.505 605.007 658.005C602.255 659.182 596.871 663.737 594.319 665.811C590.187 659.475 587.559 655.135 584.092 648.431C600.38 644.473 598.967 639.968 596.661 625.087L577.123 611.737C563.786 603.773 540.159 584.451 526.367 574.56C531.266 571.016 538.334 566.974 543.652 563.751C558.586 575.014 579.939 593.448 593.736 602.882C590.406 594.666 579.987 550.189 578.798 540.71C583.7 537.574 588.545 534.348 593.331 531.035Z" fill="#3F22BB"/>
    <path d="M599.983 526.8C605.04 523.713 610.083 518.713 615.234 519.218C618.287 520.56 619.949 524.476 621.652 527.502C627.152 510.896 635.531 495.715 658.081 498.2C667.678 499.258 677.192 512.695 682.493 520.414C690.426 531.965 698.224 544.711 705.757 556.919C699.848 560.485 694.916 563.903 689.261 567.871L667.459 534.768C665.271 531.233 656.026 515.882 651.384 516.799C609.887 525.001 649.605 566.958 660.906 585.28C655.423 588.759 650.209 592.823 645.008 596.724C634.357 581.993 625.011 564.862 614.621 549.803C609.783 542.793 604.011 534.183 599.983 526.8Z" fill="#3F22BB"/>
    <path d="M236.282 762.782C244.229 756.971 268.375 744.928 277.271 752.779C279.36 757.984 275.264 764.445 272.791 770.267C262.51 768.982 260.034 768.581 250.053 771.529C239.491 783.452 241.9 790.799 245.729 804.766C257.088 816.335 262.608 817.934 277.862 814.733C283.91 808.19 286.229 805.85 289.095 797.161L290.051 795.458C295.528 794.251 306.468 793.345 305.436 802.328C303.674 818.528 281.786 835.498 265.856 834.943C229.873 833.69 209.781 789.404 236.282 762.782Z" fill="#0D2341"/>
    <path d="M697.642 464.209C699.362 462.962 701.122 461.771 702.919 460.637C709.371 456.594 734.243 447.707 738.97 456.678C738.51 460.393 734.32 468.713 732.525 472.606C725.856 471.324 720.071 470.126 713.472 472.859C701.166 477.953 702.03 492.85 706.924 503.047C710.211 510.069 716.251 515.418 723.632 517.843C740.614 523.421 745.972 509.635 750.04 496.823C758.404 497.16 759.948 496.371 767.95 498.83C765.822 508.041 762.595 516.116 756.107 523.291C749.005 531.238 738.998 535.999 728.362 536.489C691.637 537.981 670.052 493.043 697.642 464.209Z" fill="#3F22BB"/>
    <path d="M409.85 623.937C413.6 620.957 417.118 618.35 420.625 623.215C423.767 627.572 426.965 633.295 429.857 637.887C435.001 634.057 441.338 629.946 446.702 626.275C450.053 631.748 452.149 635.664 454.965 641.438C449.352 645.236 444.752 648.553 438.584 651.395L464.31 691.056C469.055 687.813 479.228 679.277 485.025 685.291C486.991 687.332 489.71 691.795 490.448 694.576C475.978 705.52 471.149 712.225 452.989 705.716C445.068 697.33 429.746 671.941 423.213 661.577C418.706 665.12 415.797 668.953 409.99 667.597C406.784 665.343 403.665 659.074 401.552 655.451L414.768 647.359C408.482 638.159 401.424 634.335 409.85 623.937Z" fill="#0D2341"/>
  </g>
</svg>
