<svg xmlns="http://www.w3.org/2000/svg" width="24" height="24" viewBox="0 0 24 24" fill="none">
  <mask id="mask0_453_2753" style="mask-type:luminance" maskUnits="userSpaceOnUse" x="1" y="0" width="22" height="22">
    <path d="M21 6H3C2.73478 6 2.48043 6.10536 2.29289 6.29289C2.10536 6.48043 2 6.73478 2 7V20C2 20.2652 2.10536 20.5196 2.29289 20.7071C2.48043 20.8946 2.73478 21 3 21H21C21.2652 21 21.5196 20.8946 21.7071 20.7071C21.8946 20.5196 22 20.2652 22 20V7C22 6.73478 21.8946 6.48043 21.7071 6.29289C21.5196 6.10536 21.2652 6 21 6Z" fill="#00E11C" stroke="white" stroke-width="2" stroke-linejoin="round"/>
    <path d="M15.5 9.5H5.5V17.5H15.5V9.5Z" fill="#00E11C" stroke="black" stroke-width="2" stroke-linejoin="round"/>
    <path d="M7 2.25L11.545 6L17 1" stroke="white" stroke-width="2" stroke-linecap="round" stroke-linejoin="round"/>
    <path d="M19 9V9.5M19 12.5V13" stroke="black" stroke-width="2" stroke-linecap="round" stroke-linejoin="round"/>
  </mask>
  <g mask="url(#mask0_453_2753)">
    <path d="M0 0H24V24H0V0Z" fill="#00E11C"/>
    <path d="M0 0H24V24H0V0Z" fill="black" fill-opacity="0.2"/>
  </g>
</svg>
