<svg xmlns="http://www.w3.org/2000/svg" width="18" height="18" fill="none" viewBox="0 0 18 18"><path stroke="#4a29bf" stroke-linecap="round" stroke-linejoin="round" stroke-width="1.5" d="M14.295 14.002 12.69 10.8l-1.605 3.202M11.378 13.433h2.64"/><path stroke="#4a29bf" stroke-linecap="round" stroke-linejoin="round" stroke-width="1.5" d="M12.69 16.5a3.81 3.81 0 1 1 .001-7.621 3.81 3.81 0 0 1-.001 7.62M3.765 1.5h2.94c1.553 0 2.303.75 2.265 2.265v2.94c.038 1.553-.713 2.303-2.265 2.265h-2.94C2.25 9 1.5 8.25 1.5 6.697v-2.94C1.5 2.25 2.25 1.5 3.765 1.5M6.758 4.387H3.713M5.228 3.877v.51"/><path stroke="#4a29bf" stroke-linecap="round" stroke-linejoin="round" stroke-width="1.5" d="M5.993 4.38c0 1.312-1.028 2.377-2.288 2.377"/><path stroke="#4a29bf" stroke-linecap="round" stroke-linejoin="round" stroke-width="1.5" d="M6.758 6.758c-.548 0-1.043-.293-1.388-.758M1.5 11.25a5.246 5.246 0 0 0 5.25 5.25l-.787-1.312M16.5 6.75a5.246 5.246 0 0 0-5.25-5.25l.787 1.313"/></svg>