<svg width="36" height="38" viewBox="0 0 48 50" fill="none" xmlns="http://www.w3.org/2000/svg">
  <path d="M30.27 10.2458L30.2966 10.2243L30.3451 10.3814C30.8215 10.6601 30.91 10.3461 31.1834 10.385C32.0504 10.5086 32.9086 10.5439 33.778 10.6262C34.6563 10.7093 35.5446 10.9423 36.4276 10.733C36.7369 10.6595 37.0769 10.2892 37.366 10.1166C37.6278 9.96013 37.8748 9.82798 38.1459 9.68809C38.242 9.73247 38.2604 9.74144 38.3633 9.76371C38.6282 9.50832 38.4193 8.94208 38.5553 8.54257C39.7238 11.8822 39.3869 16.0176 37.8427 19.194C36.3879 22.1704 33.7994 24.4473 30.6505 25.5205C26.9444 26.7882 25.1879 25.9963 21.6694 26.2763C21.2106 26.5641 20.9282 26.8086 20.5946 27.2432C20.5679 28.353 20.5825 29.4904 20.5868 30.6033C20.5925 32.0863 20.848 34.1936 18.6904 34.1534C16.6187 34.1147 14.4724 34.1501 12.3943 34.148C12.177 34.1475 11.8603 34.1212 11.6488 34.08C10.531 33.2371 10.8061 32.0674 10.8072 30.7805L10.8107 27.1546L10.8078 22.009C10.8077 21.2473 10.6624 18.726 11.1167 18.1112C11.6063 17.4486 13.0839 16.823 13.7681 16.29C14.3047 15.8826 14.6928 15.1796 15.168 14.6984C16.7757 13.151 19.1024 12.0582 21.3248 11.828C22.2095 11.7364 23.3756 11.7525 24.2712 11.7438C24.262 12.2832 24.1137 13.4448 24.4898 13.8416C24.5591 13.9148 24.625 13.9782 24.7336 13.9723C25.2472 13.9444 29.7461 10.9496 30.1153 10.4721C30.1575 10.4176 30.1952 10.3601 30.2336 10.303C30.2462 10.2842 30.2581 10.265 30.27 10.2458ZM22.2007 18.0147C22.213 17.2744 22.4949 14.904 21.115 15.9274C20.3596 16.4877 16.226 18.7609 16.2036 19.474C16.4355 19.8679 18.5091 21.1596 19.0352 21.5421C20.0485 22.2132 20.6616 22.8036 21.7895 23.3965L22.1435 22.9631C22.1893 22.2792 22.2157 21.7262 22.1827 21.0328C23.2008 21.0421 24.5979 21.0327 25.6028 20.9266C28.4854 20.6222 33.7804 17.4115 34.5429 14.4498C33.5818 14.3613 32.1782 14.4081 31.1931 14.42L31.1599 14.4469C30.7219 14.8067 30.2654 15.4773 29.7973 15.8496C28.1901 17.1275 26.3435 17.8153 24.2937 17.9339C23.6216 17.9728 22.8297 17.9564 22.2007 18.0147Z" fill="#392691" />
  <path d="M11.7979 0.055738C12.7658 -0.0255234 14.1431 0.0107914 15.1385 0.0109084L20.8577 0.0125178L25.5714 0.00661503C26.5927 0.00601915 27.7406 -0.0358758 28.7428 0.0988861C33.2385 0.703385 37.2863 4.24148 38.5553 8.54257C38.4193 8.94208 38.6282 9.50832 38.3633 9.76371C38.2604 9.74144 38.242 9.73247 38.1459 9.68809C37.8748 9.82798 37.6278 9.96013 37.366 10.1166C37.0769 10.2892 36.7369 10.6595 36.4276 10.733C35.5446 10.9423 34.6563 10.7093 33.778 10.6262C32.9086 10.5439 32.0504 10.5086 31.1834 10.385C30.91 10.3461 30.8215 10.6601 30.3451 10.3814L30.2966 10.2243L30.27 10.2458C30.0934 10.1068 29.9672 9.92864 29.7568 9.78229C28.4396 8.86604 27.1081 7.9812 25.8304 7.00837C25.4889 6.74835 25.0947 6.46534 24.7206 6.26046C24.5384 6.44435 24.4525 6.57572 24.3043 6.78951C24.2641 7.28297 24.2575 8.10254 24.3025 8.58347C19.9894 8.15394 15.7337 10.0928 12.613 12.9262C12.34 13.1742 11.2441 14.3478 10.9753 14.3563C10.8376 14.2028 10.8102 13.7369 10.8105 13.5213C10.8125 10.9137 10.8122 8.30609 10.8076 5.69839L10.7957 2.91461C10.7902 1.53263 10.5806 0.958546 11.7979 0.055738Z" fill="#21245D" />
  <path d="M0.0321415 41.3506C1.08586 41.3581 3.60325 41.144 4.18318 41.9108C5.68447 43.8956 4.54109 45.6084 2.23926 45.6231L1.19628 45.6454C1.22944 46.4228 1.21515 47.296 1.23224 48.0895C0.830518 48.095 0.428795 48.1028 0.0271559 48.113L0.0126968 44.0083C0.0102487 43.2172 -0.0242992 42.1208 0.0321415 41.3506ZM1.21079 44.5234C2.03826 44.4699 2.80227 44.6872 3.32589 44.1924C3.68207 43.5982 3.79826 42.9427 3.08041 42.569C2.47713 42.2548 1.83138 42.4144 1.19717 42.3577C1.22535 42.9743 1.25213 43.9046 1.21079 44.5234Z" fill="#0D2341" />
  <path d="M6.99608 43.1674C7.61846 43.124 8.09475 43.1135 8.67507 43.4085C9.89911 44.0309 10.2932 45.7324 9.64091 46.8917C9.28574 47.523 8.73854 47.8768 8.04612 48.0757C6.60354 48.2048 5.40739 47.8628 5.09776 46.2716C4.81279 44.8066 5.3949 43.4307 6.99608 43.1674ZM7.80283 47.0794C9.32955 46.4655 8.9671 43.988 7.21248 44.0908C6.77087 44.2936 6.5059 44.4758 6.34562 44.9598C5.9597 46.1251 6.45699 47.2421 7.80283 47.0794Z" fill="#0D2341" />
  <path d="M30.2149 41.2062C31.4503 41.0821 32.1331 41.473 33.1261 42.1343C32.8164 42.4432 32.5328 42.7222 32.2064 43.0131C31.4276 42.3296 31.3214 42.2155 30.3162 42.2545C30.1293 42.3522 29.8841 42.4854 29.7796 42.6621C29.1462 43.7054 30.4891 43.9162 31.1722 44.1264C31.9747 44.3735 33.144 44.8386 33.2171 45.8126C33.3365 47.4048 32.3265 47.9876 30.9666 48.1387C29.7024 48.1365 29.0302 47.8821 28.0327 47.0749C28.3268 46.8031 28.6605 46.479 29.0057 46.2827C29.7379 46.9416 30.2703 47.1468 31.2885 47.0076C31.5875 46.9668 32.1248 46.4039 31.964 46.0675C31.7486 45.6172 31.2038 45.4326 30.7589 45.2819C29.4053 44.8561 27.6209 44.0837 28.5002 42.3356C28.8225 41.6949 29.5545 41.4079 30.2149 41.2062Z" fill="#3F22BB" />
  <path d="M21.5825 43.161C23.6399 43.0453 24.0075 44.2282 24.1991 45.9483C23.0867 45.9994 21.7859 45.9893 20.6727 45.9647L20.9178 46.6328C21.9614 47.4935 22.2397 47.3034 23.2711 46.5868L24.0051 47.2797C22.4381 48.7333 19.9431 48.4162 19.5904 46.0807C19.3715 44.6313 20.0076 43.3689 21.5825 43.161ZM22.1199 45.2061C22.4245 45.2106 22.7641 45.2091 23.0655 45.2233C22.7802 44.4743 22.5814 43.9735 21.6538 44.038C21.022 44.3758 20.9199 44.4817 20.7031 45.1851C20.6966 45.2064 20.6903 45.2278 20.6842 45.2493C21.1683 45.1872 21.6335 45.2018 22.1199 45.2061Z" fill="#0D2341" />
  <path d="M15.2382 41.1986L16.3958 41.1879C16.4626 42.3362 16.4146 44.0718 16.3913 45.2509C16.6662 44.809 17.8073 43.4208 18.3198 43.1866C18.4911 43.1082 19.4689 43.1465 19.7395 43.1524C19.1421 43.665 18.171 44.7543 17.6231 45.3521C18.0524 45.8251 18.452 46.3907 18.8343 46.9066C19.1773 47.3642 19.3979 47.668 19.8092 48.0734C19.3796 48.0415 18.8161 48.0863 18.3748 48.1096C17.934 47.6656 17.2238 46.4027 16.8207 46.1857C16.2939 46.2024 16.4167 47.6815 16.4172 48.0905C16.0343 48.0915 15.6514 48.1025 15.2691 48.1237C15.2274 46.3613 15.2195 44.6067 15.2181 42.8439C15.2177 42.299 15.2034 41.7419 15.2382 41.1986Z" fill="#0D2341" />
  <path d="M38.0729 43.1222L38.1237 43.1515C38.1635 43.3127 36.426 47.7839 36.1891 48.3637C35.9275 49.0038 35.3284 50.0976 34.4949 49.9547C34.3165 49.924 33.8934 49.9786 33.6956 50C33.6939 49.5425 33.7029 49.2357 33.7471 48.7813C34.7044 49.1154 34.7807 48.8401 35.1524 48.0086L34.5986 46.6887C34.1828 45.846 33.6175 44.0884 33.242 43.133C33.6072 43.1139 34.099 43.1408 34.475 43.1519C34.8635 44.2145 35.3424 45.8522 35.7333 46.7847C35.8341 46.258 36.766 43.6567 37.0169 43.1362C37.369 43.1379 37.7211 43.1332 38.0729 43.1222Z" fill="#3F22BB" />
  <path d="M38.55 43.1256C38.9082 43.1349 39.3286 43.0467 39.5736 43.2415C39.6846 43.41 39.6403 43.6635 39.6275 43.8731C40.4524 43.2103 41.3766 42.7146 42.4403 43.5816C42.893 43.9505 42.9348 44.9456 42.9505 45.5118C42.974 46.3591 42.9513 47.2626 42.9329 48.1302C42.5156 48.1171 42.1528 48.1288 41.7352 48.1445L41.7153 45.747C41.7204 45.4955 41.7551 44.4121 41.4892 44.3062C39.1121 43.3596 39.751 46.7954 39.7231 48.0973C39.3304 48.0938 38.9321 48.1289 38.5397 48.1562C38.4827 47.0582 38.5707 45.881 38.5377 44.7748C38.5223 44.2598 38.512 43.6329 38.55 43.1256Z" fill="#3F22BB" />
  <path d="M12.325 43.1634C12.9195 43.1293 14.5415 43.3109 14.7355 44.0019C14.6705 44.3348 14.2503 44.5285 13.9334 44.7429C13.4534 44.3399 13.3408 44.2382 12.7371 44.0601C11.8089 44.3186 11.6899 44.7709 11.4256 45.6062C11.6225 46.5669 11.8503 46.8295 12.7302 47.168C13.2523 47.0343 13.447 46.9917 13.878 46.6445L13.9825 46.5894C14.3004 46.708 14.8858 47.0214 14.5382 47.4438C13.9166 48.2087 12.2474 48.3516 11.4565 47.8C9.67004 46.5543 10.1044 43.645 12.325 43.1634Z" fill="#0D2341" />
  <path d="M45.5663 43.1548C45.6946 43.1479 45.8232 43.1452 45.9517 43.1467C46.4122 43.1533 47.9675 43.519 47.9128 44.1299C47.7674 44.3035 47.2813 44.5884 47.0622 44.7272C46.7656 44.443 46.5111 44.1921 46.0862 44.1141C45.2938 43.9686 44.8483 44.7536 44.7619 45.4323C44.6982 45.8969 44.8292 46.367 45.1245 46.7327C45.8038 47.5738 46.5287 47.0496 47.1563 46.5326C47.57 46.8244 47.6744 46.8351 48 47.2229C47.5893 47.6208 47.1601 47.9249 46.5949 48.0762C45.9731 48.2466 45.3084 48.1596 44.7522 47.8351C42.8378 46.7044 43.2177 43.7129 45.5663 43.1548Z" fill="#3F22BB" />
  <path d="M25.7019 41.8132C25.9902 41.785 26.2545 41.7682 26.2728 42.1305C26.2893 42.455 26.2637 42.8508 26.2597 43.179C26.6468 43.1534 27.1037 43.1528 27.4968 43.1426C27.4872 43.5307 27.465 43.7984 27.4184 44.1842C27.0085 44.1927 26.6659 44.2101 26.2593 44.1518L26.263 47.0113C26.6105 47.0025 27.4076 46.9031 27.5045 47.399C27.5373 47.5673 27.5288 47.8833 27.4749 48.0488C26.3805 48.1292 25.9149 48.3112 25.2064 47.384C25.0796 46.6979 25.1354 44.905 25.1441 44.164C24.7988 44.1959 24.5251 44.295 24.2747 44.0354C24.1859 43.8156 24.2334 43.3947 24.2451 43.1412L25.1822 43.1644C25.1652 42.4906 24.9323 42.0645 25.7019 41.8132Z" fill="#0D2341" />
</svg>
